# xmcd CD database file
#
# Track frame offsets:
#	182
#	16572
#	30990
#	49297
#	60577
#	75830
#	94675
#	119285
#	133305
#	150365
#	167972
#	187455
#
# Disc length: 2816 seconds
#
# Revision: 7
# Processed by: cddbd v1.5.2PL0 Copyright (c) Steve Scherf et al.
# Submitted via: CDex 1.70beta2
#
DISCID=900afe0c
DTITLE=Nina Simone - My baby just cares for me
DYEAR=1986
DGENRE=Jazz
TTITLE0=My baby just cares for me
TTITLE1=Don't smoke in bed
TTITLE2=Mood indigo
TTITLE3=He needs me
TTITLE4=Love me or leave me
TTITLE5=I loves you Porgy
TTITLE6=Good bait
TTITLE7=Central Park blues
TTITLE8=You'll never walk alone
TTITLE9=Plain gold ring
TTITLE10=Little girl blue
TTITLE11=My baby just cares for me  [Special extended version]
EXTD=YEAR: 1986
EXTT0=
EXTT1=
EXTT2=
EXTT3=
EXTT4=
EXTT5=
EXTT6=
EXTT7=
EXTT8=
EXTT9=
EXTT10=
EXTT11=
PLAYORDER=
